<svg width="687" height="498" xmlns="http://www.w3.org/2000/svg" xmlns:xlink="http://www.w3.org/1999/xlink" overflow="hidden"><defs><clipPath id="clip0"><rect x="0" y="0" width="687" height="498"/></clipPath></defs><g clip-path="url(#clip0)"><rect x="0" y="0" width="687" height="498.288" fill="#FFFFFF"/><rect x="0" y="0" width="687" height="498.288" stroke="#042433" stroke-width="1.99951" stroke-miterlimit="8" fill="#1E1E1E"/><path d="M96 57.0329C96 43.2178 107.417 32.0185 121.5 32.0185 135.583 32.0185 147 43.2178 147 57.0329 147 70.848 135.583 82.0473 121.5 82.0473 107.417 82.0473 96 70.848 96 57.0329Z" stroke="#042433" stroke-width="1.99951" stroke-miterlimit="8" fill="#FF0000" fill-rule="evenodd"/><rect x="29" y="192.111" width="185" height="18.0103" stroke="#042433" stroke-width="1.99951" stroke-miterlimit="8" fill="#FF0000"/><path d="M96 133.077C96 119.262 107.417 108.062 121.5 108.062 135.583 108.062 147 119.262 147 133.077 147 146.892 135.583 158.091 121.5 158.091 107.417 158.091 96 146.892 96 133.077Z" stroke="#042433" stroke-width="1.99951" stroke-miterlimit="8" fill="#FFFF00" fill-rule="evenodd"/><path d="M96 277.16C96 263.345 107.417 252.145 121.5 252.145 135.583 252.145 147 263.345 147 277.16 147 290.975 135.583 302.174 121.5 302.174 107.417 302.174 96 290.975 96 277.16Z" stroke="#042433" stroke-width="1.99951" stroke-miterlimit="8" fill="#0000FF" fill-rule="evenodd"/><path d="M96 361.208C96 347.393 107.417 336.194 121.5 336.194 135.583 336.194 147 347.393 147 361.208 147 375.024 135.583 386.223 121.5 386.223 107.417 386.223 96 375.024 96 361.208Z" stroke="#042433" stroke-width="1.99951" stroke-miterlimit="8" fill="#00FF00" fill-rule="evenodd"/><text fill="#FFFFFF" font-family="Aptos,Aptos_MSFontService,sans-serif" font-weight="400" font-size="24.008" transform="matrix(1 0 0 1.00058 282.495 65)">Knoten</text><text fill="#FFFFFF" font-family="Aptos,Aptos_MSFontService,sans-serif" font-weight="400" font-size="24.008" transform="matrix(1 0 0 1.00058 282.495 209)">Leitun</text><text fill="#FFFFFF" font-family="Aptos,Aptos_MSFontService,sans-serif" font-weight="400" font-size="24.008" transform="matrix(1 0 0 1.00058 347.206 209)">g</text><text fill="#FFFFFF" font-family="Aptos,Aptos_MSFontService,sans-serif" font-weight="400" font-size="24.008" transform="matrix(1 0 0 1.00058 284.283 140)">Slack</text><text fill="#FFFFFF" font-family="Aptos,Aptos_MSFontService,sans-serif" font-weight="400" font-size="24.008" transform="matrix(1 0 0 1.00058 341.103 140)">-</text><text fill="#FFFFFF" font-family="Aptos,Aptos_MSFontService,sans-serif" font-weight="400" font-size="24.008" transform="matrix(1 0 0 1.00058 349.267 140)">Knoten</text><text fill="#FFFFFF" font-family="Aptos,Aptos_MSFontService,sans-serif" font-weight="400" font-size="24.008" transform="matrix(1 0 0 1.00058 284.283 285)">Transformator</text><text fill="#FFFFFF" font-family="Aptos,Aptos_MSFontService,sans-serif" font-weight="400" font-size="24.008" transform="matrix(1 0 0 1.00058 284.283 369)">Schalter (Geschlossen)</text><path d="M102.5 440.254C102.5 429.478 111.23 420.743 122 420.743 132.77 420.743 141.5 429.478 141.5 440.254 141.5 451.03 132.77 459.765 122 459.765 111.23 459.765 102.5 451.03 102.5 440.254Z" stroke="#00FF00" stroke-width="8.66456" stroke-miterlimit="8" fill="#FFFFFF" fill-rule="evenodd"/><text fill="#FFFFFF" font-family="Aptos,Aptos_MSFontService,sans-serif" font-weight="400" font-size="24.008" transform="matrix(1 0 0 1.00058 284.283 448)">Schalter (Geöffnet)</text></g></svg>